:SAMPLES-PER-SECOND 30
:FULLY-SPECIFIED
:DEGREES
9
root  34.84018881 36.55032661 -14.46735352 9.001113892 -4.996126175 3.149293184
lowerback  -8.260279655 -0.7007759213 -0.4666329026
upperback  -3.906199932 -0.4579690099 -3.084399939
thorax  0.5692849755 -0.09095554799 -2.959739923
lowerneck  -7.51075983 -12.97019958 -9.862429619
upperneck  13.4776001 -17.65649986 9.979539871
head  7.125549793 -8.214870453 3.054339886
lclavicle  0 -4.497500157e-015 -2.743230041e-014
lhumerus  -48.30799866 29.24430084 64.39640045
lradius  0.006620147731 -6.507048965e-006 30.21977043
lwrist  4.824992743e-007 -3.790274832e-007 -28.06889915
lhand  -3.515483961e-031 -36.88759995 -10.68879986
lfingers  90 7.125020027 -90
lthumb  94.8109436 -25.52478981 101.0569916
rclavicle  0 -4.497500157e-015 -2.743230041e-014
rhumerus  -58.97499847 -42.33349991 -45.58940125
rradius  -5.16745672e-007 2.214343908e-008 35.12020111
rwrist  -2.867388866e-005 0.1017204151 -141.4909973
rhand  -2.998106045e-031 -2.410820007 -7.9728899
rfingers  -90 -7.125020027 -90
rthumb  -86.65420532 -7.725004673 -66.49474335
rfemur  -11.26795483 15.90785599 12.94758701
rtibia  -0.3005598783 -0.9105380774 18.82371712
rfoot  1.218852997 -21.64979362 -35.42568207
rtoes  4.101288795 19.59664345 -102.0702057
lfemur  -6.452148438 -16.07341194 -20.72729301
ltibia  3.792195797 -0.32484442 12.35142136
lfoot  0.5689654946 -23.53482056 36.77066422
ltoes  -8.770944595 -18.04536057 -116.476799
10
root  34.84222833 36.55175937 -14.46635329 9.035163879 -5.0091362 3.16087985
lowerback  -8.20084095 -0.7076010704 -0.4591498971
upperback  -3.92572999 -0.4676809907 -3.102760077
thorax  0.5155730247 -0.09095554799 -2.983210087
lowerneck  -7.457019806 -12.98190022 -9.830229759
upperneck  13.45680046 -17.67409897 9.951259613
head  7.105690002 -8.226349831 3.042779922
lclavicle  0 -4.497500157e-015 -2.743230041e-014
lhumerus  -48.34220123 29.27160072 64.29389954
lradius  0.006620147731 -6.507048965e-006 30.20519829
lwrist  4.824992743e-007 -3.790274832e-007 -28.13360023
lhand  -3.515513696e-031 -36.87730026 -10.6899004
lfingers  90 7.125020027 -90
lthumb  94.80857849 -25.52620697 101.0461121
rclavicle  0 -4.497500157e-015 -2.743230041e-014
rhumerus  -58.90729904 -42.25680161 -45.70709991
rradius  -5.16745672e-007 2.214343908e-008 35.24629974
rwrist  -2.867388866e-005 0.1017204151 -141.4190063
rhand  -3.001985446e-031 -2.338920116 -7.915380001
rfingers  -90 -7.125020027 -90
rthumb  -86.61810303 -7.781740665 -66.4216156
rfemur  -11.32254982 15.8880434 12.92234993
rtibia  -0.3058581352 -0.9153938293 18.85792923
rfoot  1.203609228 -21.65561485 -35.41018677
rtoes  4.121983051 19.59741402 -102.1319275
lfemur  -6.481004238 -16.05460358 -20.73550415
ltibia  3.802321196 -0.311806947 12.32825661
lfoot  0.5720476508 -23.54649544 36.7700386
ltoes  -8.793283463 -18.03476524 -116.5489273
11
root  34.84300028 36.55259741 -14.46527046 9.057034492 -5.011898994 3.150586843
lowerback  -8.191679001 -0.7115319967 -0.494192481
upperback  -3.916719913 -0.4702430069 -3.113080025
thorax  0.5200200081 -0.09095554799 -2.974289894
lowerneck  -7.419340134 -13.00739956 -9.885450363
upperneck  13.40120029 -17.70700073 9.978460312
head  7.092350006 -8.246569633 3.057770014
lclavicle  0 -4.497500157e-015 -2.743230041e-014
lhumerus  -48.3268013 29.3064003 64.27899933
lradius  0.006620147731 -6.507048965e-006 30.20413971
lwrist  4.824992743e-007 -3.790274832e-007 -28.15839958
lhand  -3.511569336e-031 -36.87680054 -10.73750019
lfingers  90 7.125020027 -90
lthumb  94.81847382 -25.57306671 101.0499268
rclavicle  0 -4.497500157e-015 -2.743230041e-014
rhumerus  -58.79610062 -42.16159821 -45.85950089
rradius  -5.16745672e-007 2.214343908e-008 35.34389877
rwrist  -2.867388866e-005 0.1017204151 -141.6940002
rhand  -3.000466838e-031 -2.318650007 -7.938169956
rfingers  -90 -7.125020027 -90
rthumb  -86.62369537 -7.761900902 -66.40319061
rfemur  -11.36006069 15.88249111 12.92475605
rtibia  -0.3024263084 -0.8926159143 18.87996864
rfoot  1.208744764 -21.61789322 -35.37528229
rtoes  4.11669445 19.59815407 -102.1161575
lfemur  -6.470429897 -16.02012634 -20.7294178
ltibia  3.820014715 -0.280238837 12.28152084
lfoot  0.5741161108 -23.58470726 36.78290939
ltoes  -8.772973061 -18.04440117 -116.483345
12
root  34.84322255 36.55317712 -14.46415308 9.066979408 -5.012852669 3.16644001
lowerback  -8.18862915 -0.7182459235 -0.4938572347
upperback  -3.91376996 -0.4791670144 -3.118030071
thorax  0.5187078714 -0.09095554799 -2.980350018
lowerneck  -7.398069859 -13.02630043 -10.02690029
upperneck  13.37749958 -17.73399925 10.08870029
head  7.107629776 -8.25965023 3.109240055
lclavicle  0 -4.497500157e-015 -2.743230041e-014
lhumerus  -48.33209991 29.39940071 64.22789764
lradius  0.006620147731 -6.507048965e-006 30.20412254
lwrist  4.824992743e-007 -3.790274832e-007 -28.18340111
lhand  -3.514326284e-031 -36.92810059 -10.69699955
lfingers  90 7.125020027 -90
lthumb  94.83393097 -25.53141212 101.1011124
rclavicle  0 -4.497500157e-015 -2.743230041e-014
rhumerus  -58.55630493 -41.92089844 -46.1846962
rradius  -5.16745672e-007 2.214343908e-008 35.45479965
rwrist  -2.867388866e-005 0.1017204151 -142.1959991
rhand  -3.004440254e-031 -2.416990042 -7.878280163
rfingers  -90 -7.125020027 -90
rthumb  -86.61721039 -7.811462402 -66.49557495
rfemur  -11.4070425 15.92325115 12.91935444
rtibia  -0.3215091825 -0.8597606421 18.94748306
rfoot  1.197449565 -21.55280685 -35.37191391
rtoes  4.115381241 19.5988636 -102.112236
lfemur  -6.390185833 -16.05345154 -20.7903862
ltibia  3.897479534 -0.2991615236 12.15064144
lfoot  0.5668315291 -23.47975349 36.81027985
ltoes  -8.711322784 -18.07347488 -116.2844696
13
root  34.84324658 36.55361266 -14.46298314 9.070725441 -5.012969494 3.16739583
lowerback  -8.192894936 -0.7242565155 -0.50782305
upperback  -3.923150063 -0.484604001 -3.129839897
thorax  0.5159689784 -0.09095554799 -2.987709999
lowerneck  -7.402009964 -13.04650021 -10.06569958
upperneck  13.39820004 -17.76230049 10.11130047
head  7.123740196 -8.272339821 3.117049932
lclavicle  0 -4.497500157e-015 -2.743230041e-014
lhumerus  -48.33280182 29.41040039 64.20860291
lradius  0.006620147731 -6.507048965e-006 30.22660065
lwrist  4.824992743e-007 -3.790274832e-007 -28.13209915
lhand  -3.514479114e-031 -36.97710037 -10.6882
lfingers  90 7.125020027 -90
lthumb  94.85499573 -25.52104759 101.1526337
rclavicle  0 -4.497500157e-015 -2.743230041e-014
rhumerus  -58.36420059 -41.68489838 -46.52909851
rradius  -5.16745672e-007 2.214343908e-008 35.70209885
rwrist  -2.867388866e-005 0.1017204151 -142.4100037
rhand  -3.007472933e-031 -2.46784997 -7.832709789
rfingers  -90 -7.125020027 -90
rthumb  -86.60807037 -7.85048151 -66.54259491
rfemur  -11.3823061 15.90716648 12.91859055
rtibia  -0.3112678826 -0.863611877 18.91405296
rfoot  1.217720628 -21.55217171 -35.3458786
rtoes  4.089607716 19.5995388 -102.0353775
lfemur  -6.359170914 -16.06753731 -20.81367874
ltibia  3.925093412 -0.3195356131 12.11480427
lfoot  0.552809298 -23.41872215 36.77984619
ltoes  -8.664160728 -18.09554482 -116.1325455
